<?xml version="1.0" encoding="UTF-8" standalone="no"?>
<!-- Generator: Adobe Illustrator 14.0.0, SVG Export Plug-In . SVG Version: 6.00 Build 43363)  -->

<svg
   xmlns:dc="http://purl.org/dc/elements/1.1/"
   xmlns:cc="http://creativecommons.org/ns#"
   xmlns:rdf="http://www.w3.org/1999/02/22-rdf-syntax-ns#"
   xmlns:svg="http://www.w3.org/2000/svg"
   xmlns="http://www.w3.org/2000/svg"
   xmlns:sodipodi="http://sodipodi.sourceforge.net/DTD/sodipodi-0.dtd"
   xmlns:inkscape="http://www.inkscape.org/namespaces/inkscape"
   version="1.1"
   id="Layer_1"
   x="0px"
   y="0px"
   width="400"
   height="700"
   viewBox="0 0 400 700"
   enable-background="new 0 0 300 300"
   xml:space="preserve"
   inkscape:version="0.48.3.1 r9886"
   sodipodi:docname="Football_pictogram.svg"><metadata
   id="metadata19"><rdf:RDF><cc:Work
       rdf:about=""><dc:format>image/svg+xml</dc:format><dc:type
         rdf:resource="http://purl.org/dc/dcmitype/StillImage" /></cc:Work></rdf:RDF></metadata><defs
   id="defs17" /><sodipodi:namedview
   pagecolor="#ffffff"
   bordercolor="#666666"
   borderopacity="1"
   objecttolerance="10"
   gridtolerance="10"
   guidetolerance="10"
   inkscape:pageopacity="0"
   inkscape:pageshadow="2"
   inkscape:window-width="1920"
   inkscape:window-height="1139"
   id="namedview15"
   showgrid="false"
   inkscape:zoom="0.78666667"
   inkscape:cx="150"
   inkscape:cy="150"
   inkscape:window-x="-9"
   inkscape:window-y="-9"
   inkscape:window-maximized="1"
   inkscape:current-layer="Layer_1" />






<path
   style="fill:#020202"
   d="m 142.54024,686.93962 c -2.28453,-0.1657 -5.30618,-0.6558 -8.12313,-1.31757 -3.92386,-0.92177 -4.75098,-1.22485 -6.60641,-2.42079 -1.16655,-0.75193 -2.66109,-1.85151 -3.32126,-2.44354 -0.66014,-0.59203 -2.99846,-2.5626 -5.19628,-4.37919 -5.47507,-4.52517 -6.48606,-5.56385 -10.17721,-10.45578 -3.24738,-4.30384 -3.4114,-4.62084 -5.24904,-10.14432 -1.94297,-5.84014 -1.91972,-5.6975 -1.8653,-11.4365 0.0851,-8.96992 1.1529,-14.15307 4.23471,-20.55507 4.85285,-10.08114 12.28877,-17.45146 21.97732,-21.78335 3.16601,-1.41565 5.34109,-2.13506 11.72875,-3.8797 2.16642,-0.59164 3.79671,-1.20905 4.15893,-1.57502 0.57097,-0.57684 1.71012,-4.70052 3.40627,-12.33068 0.60683,-2.72982 0.62905,-3.60155 0.68795,-27.02068 0.0494,-19.6437 0.13677,-24.36753 0.46391,-25.09068 1.17881,-2.6057 2.01574,-6.9276 2.55873,-13.2134 0.26151,-3.02723 0.82627,-5.36397 2.20819,-9.13614 0.64202,-1.75257 1.49685,-4.32223 1.89967,-5.71035 1.65652,-5.70897 3.6741,-10.88692 4.87068,-12.50011 0.6544,-0.88225 2.09522,-3.34117 3.20179,-5.46418 1.10654,-2.12307 2.91126,-5.12952 4.01044,-6.68095 1.09914,-1.5515 2.69782,-4.22382 3.55257,-5.93862 1.51805,-3.04548 3.01336,-5.04784 3.76965,-5.04784 0.76673,0 2.43685,-1.82931 2.92233,-3.20092 0.75361,-2.129 0.92918,-7.53501 0.35245,-10.85147 -0.58955,-3.39002 -1.01886,-6.55503 -1.25554,-9.25667 -0.10015,-1.14316 -0.43064,-2.8802 -0.73443,-3.86005 -0.30375,-0.97992 -0.70087,-2.53502 -0.88244,-3.45577 -0.18158,-0.92076 -0.55924,-1.88149 -0.83928,-2.13486 -0.28,-0.25344 -2.0441,-0.87559 -3.92016,-1.3826 -4.00424,-1.08213 -6.21161,-2.07343 -9.0266,-4.05393 -1.73533,-1.22091 -2.29727,-1.85218 -3.6374,-4.08611 -1.75136,-2.91951 -1.83028,-3.37042 -1.14907,-6.56268 0.43227,-2.02554 1.09155,-5.95894 1.68149,-10.03199 0.16052,-1.10818 0.48465,-2.5614 0.72032,-3.22938 0.23568,-0.66792 0.4285,-2.25652 0.4285,-3.53012 0,-1.87863 -0.16747,-2.73389 -0.88726,-4.53144 -0.48797,-1.21863 -1.01977,-3.13283 -1.18181,-4.25373 -0.16263,-1.12483 -0.29648,-8.55664 -0.29874,-16.58747 -0.003,-11.46489 0.0907,-15.17916 0.44314,-17.5189 0.52832,-3.50747 1.59573,-7.55774 2.69975,-10.24412 0.69812,-1.69881 0.81941,-2.5045 1.01229,-6.72412 0.19545,-4.27532 0.30338,-4.97802 0.99749,-6.49414 0.90635,-1.97976 1.00075,-3.81614 0.30638,-5.96086 -0.71784,-2.21708 -0.89496,-10.43453 -0.30784,-14.28146 0.91969,-6.02603 2.51138,-10.42533 5.34434,-14.77155 1.76685,-2.71057 2.42055,-3.28274 4.10123,-3.58975 0.60173,-0.10987 1.28675,-0.4204 1.52228,-0.69003 0.64681,-0.74054 0.91246,-7.92677 0.86876,-23.50234 -0.0883,-31.50838 -0.25557,-34.54428 -2.07846,-37.74065 -0.5027,-0.88146 -1.19158,-2.72213 -1.53082,-4.09038 -0.33924,-1.36824 -1.12172,-3.63976 -1.73883,-5.04782 -1.42155,-3.24346 -1.87449,-3.38996 -3.44238,-1.11348 -1.73443,2.51832 -4.47266,5.10937 -6.35998,6.01812 -0.93308,0.44927 -2.43141,1.31001 -3.32963,1.91274 -0.89822,0.60273 -3.39834,2.18777 -5.55585,3.52228 -2.15749,1.33452 -4.56263,2.96223 -5.34474,3.61713 -0.78211,0.65491 -1.95651,1.46444 -2.60975,1.79897 -0.65325,0.33452 -3.12519,1.845 -5.49322,3.35661 -2.36803,1.51161 -5.1072,3.15396 -6.08707,3.64966 -4.16977,2.10942 -11.32993,8.03459 -13.26544,10.97737 -0.49875,0.75832 -1.49317,1.61599 -2.67237,2.30488 -1.03294,0.60343 -2.61293,1.79479 -3.51115,2.64748 -3.5884,3.40652 -7.15608,5.48188 -10.54103,6.13186 -1.448197,0.27807 -1.98456,0.55459 -2.866153,1.47767 -0.596507,0.62456 -1.242568,1.61443 -1.435721,2.19967 -0.193153,0.58522 -1.485277,3.42065 -2.871382,6.30085 -1.386099,2.88026 -3.04422,6.58507 -3.684726,8.23291 -1.647968,4.23981 -3.892841,8.53846 -6.23734,11.94372 -2.458414,3.57077 -4.206226,6.98582 -5.003593,9.77641 -0.689942,2.41475 -1.490367,3.71267 -3.077013,4.98954 -0.922049,0.74201 -1.457441,0.92616 -2.973438,1.0227 -3.180615,0.20253 -3.733082,-0.79723 -3.75776,-6.80015 -0.01486,-3.61833 -0.187976,-3.92814 -2.388371,-4.27445 -1.819401,-0.28642 -3.529576,-1.06694 -4.819895,-2.19983 -1.602583,-1.40712 -3.662147,-7.7109 -4.247006,-12.99899 -0.231609,-2.09415 -0.55464,-4.34202 -0.717845,-4.99527 -0.539682,-2.16018 -0.38266,-4.27932 0.418365,-5.6462 0.401096,-0.68443 0.929831,-2.20628 1.174957,-3.38194 0.291911,-1.4 0.737999,-2.51643 1.292865,-3.23565 0.852579,-1.10511 5.617521,-8.17854 6.781545,-10.06702 0.459293,-0.74515 0.670227,-1.70772 0.794469,-3.62542 0.197897,-3.0545 0.729611,-4.52781 1.89588,-5.25321 1.526351,-0.94936 2.234314,-1.72244 3.830548,-4.18292 0.917858,-1.4148 1.941557,-2.62082 2.446068,-2.88172 0.477181,-0.24675 1.859049,-0.57174 3.07081,-0.72218 3.169336,-0.39348 5.419606,-1.62495 8.410267,-4.60256 1.339841,-1.33399 3.12317,-3.05921 3.962984,-3.83383 0.839774,-0.77462 1.881615,-2.1108 2.315197,-2.96931 0.433549,-0.85849 1.170561,-2.11856 1.637781,-2.80015 0.46722,-0.68159 2.035545,-3.55439 3.485164,-6.38401 1.449613,-2.82961 3.035823,-5.82191 3.524913,-6.64954 0.48908,-0.82763 1.10709,-1.96382 1.37332,-2.52487 0.26625,-0.56106 1.10089,-1.75457 1.8548,-2.65225 0.83684,-0.99641 2.26765,-3.48268 3.67338,-6.38304 1.26647,-2.61299 2.9357,-5.81984 3.70938,-7.12634 0.77372,-1.30649 1.78177,-3.11034 2.24014,-4.00856 1.62477,-3.18382 7.3574,-7.47531 11.46208,-8.5806 0.66458,-0.17895 1.75679,-0.69372 2.42717,-1.14395 1.97132,-1.32395 7.38108,-6.81804 9.82442,-9.97759 3.48119,-4.50158 3.40401,-4.33047 3.63111,-8.05063 0.57981,-9.49798 1.14805,-12.53601 3.12346,-16.69876 0.84415,-1.77891 1.378,-2.44011 3.16113,-3.91528 1.17996,-0.9762 2.74673,-2.40354 3.48162,-3.17186 1.5014,-1.56969 3.01104,-2.33833 5.19629,-2.64575 0.81656,-0.11487 2.48677,-0.67087 3.71154,-1.23558 2.68378,-1.23734 8.19312,-2.48147 10.98869,-2.48147 1.71742,0 2.32476,-0.15113 3.91059,-0.97306 1.03257,-0.53517 3.06868,-1.43137 4.52472,-1.99153 2.48865,-0.95746 2.80898,-1.18484 5.34474,-3.79388 3.15593,-3.24714 4.03001,-4.56177 4.03209,-6.06445 0.003,-1.66604 -0.44039,-2.51064 -2.36851,-4.51857 -2.14154,-2.23022 -2.42995,-2.88762 -3.77526,-8.60601 l -1.05579,-4.48789 -0.20447,-12.471082 -0.20444,-12.471083 -0.86086,-2.226978 -0.86086,-2.226985 0,-7.571725 c 0,-6.686119 0.078,-7.971128 0.67549,-10.986433 0.92503,-4.668556 2.80724,-10.037014 4.57828,-13.058142 1.62184,-2.766627 5.257,-7.636337 6.80428,-9.115085 1.23702,-1.182199 8.05372,-5.003726 10.29414,-5.770993 0.92328,-0.316202 2.41357,-1.017496 3.31179,-1.558471 2.73411,-1.646628 3.42579,-1.823537 7.12634,-1.822798 3.07044,0 3.68414,0.09531 6.08707,0.939459 1.8534,0.651052 3.71889,1.044812 6.08709,1.284788 5.20914,0.527916 6.45568,0.803404 8.73848,1.931358 1.4147,0.698975 2.52166,1.039995 3.37602,1.039995 1.4201,0 3.15506,0.773329 4.09871,1.826896 1.11892,1.249278 6.52936,10.218394 8.67736,14.384791 0.69831,1.354518 1.00373,4.820008 1.21432,13.778298 0.23941,10.183802 0.28482,10.460322 2.08546,12.700993 1.25376,1.56013 1.60307,3.722581 1.42574,8.826478 -0.17792,5.121698 -0.69348,6.776649 -2.99074,9.60004 -0.88616,1.089139 -1.97616,2.706405 -2.42224,3.593937 -0.44605,0.887522 -1.24239,2.240752 -1.76958,3.007182 -0.95696,1.39114 -0.95892,1.40175 -1.15908,6.25498 l -0.20049,4.86147 0.90822,1.84509 c 1.01393,2.05984 1.90484,2.82536 4.21191,3.6191 0.86443,0.29741 2.37282,0.94172 3.35195,1.4318 2.96789,1.4855 3.76469,1.65979 5.7109,1.24912 0.94106,-0.19856 2.70243,-0.35716 3.91415,-0.35243 2.01286,0.008 2.43589,0.12521 4.89935,1.35906 1.48293,0.74276 3.41684,1.57671 4.29756,1.85324 0.88075,0.27652 2.38676,0.97063 3.34668,1.54247 1.48059,0.88198 2.16026,1.08131 4.48054,1.31404 1.91484,0.19207 3.06188,0.46998 3.82456,0.92663 5.77802,3.45966 8.18241,5.29724 12.7033,9.70867 1.25522,1.22483 2.83967,2.72623 3.52101,3.33645 1.49587,1.33975 2.13329,2.54154 3.64158,6.86574 1.81006,5.18934 3.47717,8.10557 5.79906,10.14407 1.29221,1.13451 2.62082,2.74094 3.90125,4.71704 1.06794,1.64814 2.70973,4.06559 3.64838,5.37207 2.2842,3.17926 3.22717,5.12922 3.71604,7.68433 0.22438,1.17266 0.56122,2.52898 0.74859,3.01404 0.18733,0.48506 0.51808,1.68364 0.73502,2.66351 1.56907,7.08755 3.12688,11.62706 5.07083,14.7765 2.01886,3.27085 3.42803,6.52399 4.01067,9.25882 0.31499,1.47864 0.76489,3.28972 0.9998,4.02463 0.23487,0.7349 0.51203,2.00428 0.61586,2.82084 0.52381,4.11838 1.18009,6.76229 2.35855,9.50178 0.70251,1.63312 1.50481,3.97144 1.78289,5.19628 0.61622,2.71428 1.1771,12.11288 1.17834,19.74588 0,6.39969 -0.32282,8.07491 -2.07899,10.7535 -0.89166,1.36 -1.33227,1.69837 -3.61724,2.77783 -1.43106,0.67606 -3.20319,1.59425 -3.9381,2.04044 -3.87657,2.35359 -5.69124,3.33459 -7.59941,4.10826 -1.15841,0.46966 -3.2379,1.67618 -4.6211,2.68113 -1.84233,1.33855 -3.3834,2.14999 -5.76247,3.03417 -1.78615,0.66385 -3.46577,1.46367 -3.73251,1.7774 -0.40822,0.48017 -0.50825,1.66416 -0.63227,7.48398 -0.0837,3.92681 -0.29332,7.36252 -0.4852,7.95282 -0.18582,0.57165 -0.47966,2.37545 -0.65301,4.00856 -0.49115,4.62756 -1.0233,6.46981 -3.2795,11.35322 -1.58425,3.42905 -2.05179,4.72937 -1.90742,5.30455 0.33276,1.3259 1.66957,3.17794 3.62213,5.01818 1.74477,1.64445 1.97934,2.02167 3.04669,4.89934 0.63602,1.71479 1.63709,4.1965 2.22464,5.51488 1.2569,2.82043 1.66425,4.7227 1.67319,7.8133 0.009,2.95662 1.22585,5.56971 4.30426,9.23955 1.84263,2.19656 1.94688,2.6678 1.85679,8.39275 l -0.0805,5.11659 1.25518,2.78219 c 0.69034,1.53024 1.34528,3.26728 1.45544,3.86012 0.11016,0.59283 0.52277,2.01327 0.91695,3.15642 0.64042,1.85737 0.74862,2.88419 1.01704,9.65023 0.16522,4.16445 0.23999,8.13743 0.16614,8.8288 -0.0824,0.77098 -0.6194,2.05998 -1.38878,3.33338 -1.82784,3.02517 -1.98262,3.90095 -1.18994,6.73284 1.22214,4.36627 0.80976,8.33492 -1.19449,11.49528 -1.57409,2.48204 -4.46807,9.15619 -6.13317,14.14447 -0.89859,2.69191 -2.09966,5.72742 -2.66899,6.74545 -2.02197,3.61573 -2.23793,5.1457 -2.46443,17.45926 -0.19779,10.75539 -0.2183,11.03635 -0.97471,13.36183 -0.42497,1.30652 -0.86223,3.37761 -0.97171,4.60246 -0.10944,1.22483 -0.51051,3.49634 -0.89123,5.04783 -0.3807,1.55143 -0.84007,4.23628 -1.02085,5.9664 -0.18073,1.73004 -0.6593,4.51118 -1.06342,6.18019 -0.40416,1.66909 -0.73481,3.38429 -0.73481,3.81162 0,0.42732 0.52781,1.58794 1.17293,2.57925 1.44341,2.21788 1.92811,3.37009 2.38204,5.66239 0.19404,0.97985 0.70045,2.85048 1.12535,4.15699 0.72559,2.231 0.77224,2.72749 0.76698,8.16556 -0.005,4.89453 -0.10817,6.24948 -0.66892,8.75951 -0.36483,1.63311 -0.79565,4.23868 -0.95731,5.7901 -0.16168,1.5515 -0.41736,3.28854 -0.56817,3.86013 -0.55557,2.10567 -3.44048,6.72299 -6.3725,10.19921 -3.78402,4.48638 -4.31154,5.2497 -4.35825,6.30644 -0.13433,3.0393 1.99015,12.97015 3.82491,17.87955 l 1.03225,2.76199 -0.13029,10.45139 c -0.11809,9.47154 -0.18629,10.61835 -0.7273,12.23294 -0.39745,1.18606 -0.65948,2.99859 -0.78402,5.42267 -0.28357,5.52001 -1.55354,8.49754 -5.23949,12.28424 -1.74464,1.79241 -2.09716,2.01674 -3.66952,2.33554 -2.80523,0.56884 -7.79254,0.51635 -9.59668,-0.10094 -3.21837,-1.10117 -5.64662,-3.75145 -7.94958,-8.67656 -0.69203,-1.47988 -1.92959,-3.75139 -2.7502,-5.04778 -2.02519,-3.19939 -3.37527,-7.04218 -4.26582,-12.14206 -0.28152,-1.61206 0.12608,-12.07251 0.60214,-15.45412 0.4073,-2.89325 0.38011,-4.81878 -0.0925,-6.54203 -1.78321,-6.50247 -2.40463,-8.44992 -3.55936,-11.15435 -1.70032,-3.98225 -1.94671,-4.94997 -2.24156,-8.80416 -0.22561,-2.94902 -0.32752,-3.32845 -1.33565,-4.97414 -1.27909,-2.0879 -2.05666,-4.43803 -2.55642,-7.72663 -0.47958,-3.1557 -0.18942,-5.77912 0.86973,-7.86342 1.32791,-2.61316 1.35228,-3.12484 0.34239,-7.18403 -0.49982,-2.00901 -1.1044,-5.13692 -1.34354,-6.95098 -0.50817,-3.85479 -0.67205,-4.29205 -2.71461,-7.2428 -2.67311,-3.86171 -3.68455,-7.122 -3.68455,-11.87702 0,-1.88276 -0.28089,-3.77957 -1.05823,-7.14599 -1.37218,-5.94262 -1.60096,-7.52476 -1.60818,-11.12138 -0.004,-2.06983 -0.19089,-3.64258 -0.61366,-5.16816 -0.33423,-1.20611 -0.79156,-3.14089 -1.01634,-4.2995 -0.22474,-1.15868 -0.74434,-2.85915 -1.15464,-3.7789 -0.41027,-0.91976 -0.95831,-2.70032 -1.21787,-3.9568 -0.81697,-3.95525 -2.77847,-7.41648 -6.35951,-11.22177 -1.91561,-2.03566 -2.788,-1.26901 -3.2942,2.89506 -0.1787,1.46981 -0.5824,3.67449 -0.89718,4.89933 -0.31475,1.2249 -0.78143,3.86277 -1.03706,5.86213 -0.45893,3.58908 -0.72783,4.6235 -2.49005,9.57827 -0.49369,1.38819 -1.10851,3.86011 -1.36624,5.49322 -0.25774,1.63311 -0.73704,3.95619 -1.0651,5.1623 -0.73508,2.70271 -3.60081,9.51751 -5.75798,13.69282 -1.5014,2.90599 -2.39528,4.9032 -5.67971,12.69012 -0.70519,1.67189 -1.84253,3.9993 -2.52737,5.1719 -1.72062,2.94616 -3.38677,6.64471 -3.7914,8.41633 -0.1865,0.81655 -0.53768,2.93936 -0.78039,4.71731 -0.24271,1.77795 -0.77184,4.19037 -1.17584,5.36084 -0.86715,2.51243 -1.50473,5.9766 -1.95321,10.61283 -0.41888,4.33021 -1.23487,7.79698 -2.35973,10.02532 -0.49288,0.97632 -1.29335,2.77519 -1.77886,3.99736 -1.40074,3.52612 -6.63847,13.74086 -8.4641,16.50687 -1.75139,2.65353 -6.31147,11.65303 -7.82367,15.44039 -0.48905,1.22483 -1.56984,3.66184 -2.40175,5.41561 l -1.51257,3.1886 0,4.88334 c 0,3.11699 0.15503,5.62042 0.42865,6.92107 0.25919,1.23223 0.50906,4.90806 0.63205,9.29851 0.13373,4.77381 0.33374,7.58185 0.58394,8.1982 0.20931,0.51561 1.04329,1.78501 1.85335,2.82083 0.81006,1.03582 1.912,2.68506 2.44879,3.66497 0.53679,0.97985 1.46666,2.38284 2.06634,3.11779 1.80433,2.21108 2.03244,2.70323 2.82485,6.09465 0.41876,1.79227 1.05772,4.12714 1.41995,5.18867 0.6175,1.80975 0.65393,2.36932 0.58454,8.97598 -0.0726,6.90981 -0.0595,7.08471 0.68059,9.05633 0.43765,1.16608 1.47373,2.94596 2.46667,4.23755 2.09318,2.72269 3.48857,5.01446 5.10746,8.38834 1.19314,2.48652 1.23951,2.69446 1.39276,6.2427 0.17804,4.12315 -0.0151,5.05643 -1.58106,7.63875 -1.76366,2.90824 -4.38816,3.98697 -10.36784,4.26133 -3.21027,0.14724 -4.30746,0.0785 -6.51745,-0.40901 -2.05515,-0.45332 -3.77452,-0.5861 -7.58744,-0.5861 l -4.93009,0 -2.35973,1.14068 c -1.29786,0.62728 -2.89422,1.31241 -3.54746,1.52248 -0.65326,0.20994 -1.92263,0.68571 -2.82084,1.05714 -0.89822,0.37144 -2.43483,0.77399 -3.41471,0.89451 -0.97986,0.12052 -2.31605,0.41707 -2.9693,0.65892 -1.47851,0.54739 -7.76789,0.71955 -12.84254,0.35145 z"
   id="path3066"
   inkscape:connector-curvature="0" /></svg>